<svg width="122" height="92" viewBox="0 0 122 92" fill="none" xmlns="http://www.w3.org/2000/svg">
<path fill-rule="evenodd" clip-rule="evenodd" d="M35.3076 90.7508C38.7387 91.5676 42.3189 92 46 92C49.9548 92 53.793 91.5009 57.4551 90.5623C77.318 85.4715 92 67.4503 92 46C92 24.5497 77.318 6.52851 57.4551 1.43766C53.793 0.499071 49.9548 0 46 0C42.3189 0 38.7388 0.432393 35.3076 1.24916C15.059 6.06927 0 24.276 0 46C0 67.724 15.059 85.9307 35.3076 90.7508ZM81.6556 41C79.7706 27.4343 70.3263 16.2867 57.7142 11.9488C62.816 20.5772 66.0379 30.4489 66.8163 41H81.6556ZM46.5 13.0262C40.7943 21.0579 37.1173 30.6315 36.2163 41H56.7837C55.8827 30.6315 52.2057 21.0579 46.5 13.0262ZM35.5248 11.5478C30.2847 20.2708 26.9742 30.285 26.1838 41H10.3444C12.2906 26.9936 22.2952 15.565 35.5248 11.5478ZM81.6556 51H66.8163C66.0379 61.5511 62.8159 71.4228 57.7142 80.0512C70.3263 75.7133 79.7706 64.5657 81.6556 51ZM56.7837 51C55.8827 61.3685 52.2057 70.9421 46.5 78.9738C40.7943 70.9421 37.1173 61.3685 36.2163 51H56.7837ZM10.3444 51H26.1838C26.9742 61.715 30.2847 71.7292 35.5248 80.4522C22.2952 76.435 12.2906 65.0064 10.3444 51Z" fill="black"/>
<path d="M97 59.9999C93 74.9999 85 82.9998 74.5 88.9998C81.3333 88.1665 94.1029 87.1882 108 80C122.5 72.5 116 67.4999 105.5 67.4999C126 59.9999 120 49.6539 113 47.5C103.148 44.4686 97.9094 56.5895 97 59.9999Z" stroke="black" stroke-width="4" stroke-linejoin="round" stroke-dasharray="8 3"/>
</svg>
