<svg width="260" height="113" viewBox="0 0 260 113" fill="none" xmlns="http://www.w3.org/2000/svg">
<path fill-rule="evenodd" clip-rule="evenodd" d="M0 53C0 41.9543 8.95431 33 20 33H60C71.0457 33 80 41.9543 80 53V93C80 104.046 71.0457 113 60 113H20C8.95431 113 0 104.046 0 93V53ZM59.6 46.6C56.2863 46.6 53.6 49.2863 53.6 52.6C53.6 55.9137 56.2863 58.6 59.6 58.6C62.9137 58.6 65.6 55.9137 65.6 52.6C65.6 49.2863 62.9137 46.6 59.6 46.6ZM45.6 52.6C45.6 44.868 51.868 38.6 59.6 38.6C67.332 38.6 73.6 44.868 73.6 52.6C73.6 60.332 67.332 66.6 59.6 66.6C51.868 66.6 45.6 60.332 45.6 52.6ZM22.0097 40.2784C22.3718 45.4682 22.2352 49.6596 21.704 52.812C21.1543 56.0748 20.2691 57.6991 19.6091 58.3591C19.2646 58.7036 18.8802 58.9743 17.6833 58.6063C16.1866 58.1462 13.8984 56.7416 10.8284 53.6716L5.17157 59.3284C8.60155 62.7584 12.0009 65.2288 15.3323 66.2531C18.9635 67.3694 22.5479 66.7339 25.2659 64.0159C27.6684 61.6134 28.9395 58.0189 29.5928 54.1412C30.2648 50.1529 30.3782 45.2818 29.9903 39.7216L22.0097 40.2784ZM31.7188 77.9317C34.2391 79.3752 36.7536 81.2516 38.1712 82.7779L32.3094 88.2221C31.6276 87.488 29.8482 86.0796 27.7428 84.8738C27.1105 84.5116 26.4942 84.1943 25.9178 83.9346C26.0215 84.0735 26.1267 84.2156 26.2208 84.3455C27.5628 86.1996 28.9048 88.3445 29.7339 90.9382C30.5595 93.5208 29.8311 95.6958 29.1811 97.1593C28.5033 98.6855 27.3091 100.648 25.43 101.983C23.6987 103.212 21.8568 103.327 20.3744 103.036C19.2148 102.808 18.1487 102.296 17.5995 102.032C17.554 102.01 17.5121 101.99 17.474 101.972C15.5267 101.045 13.3525 99.0477 11.7922 97.5569C10.9903 96.7908 10.2901 96.0983 9.67489 95.4899L9.67393 95.4889L9.67369 95.4887C8.84565 94.6698 8.17176 94.0033 7.6115 93.5148L12.8692 87.4851C13.5778 88.103 14.595 89.1051 15.6109 90.1059L15.611 90.106L15.611 90.106L15.6115 90.1066L15.6116 90.1066C16.2013 90.6876 16.7905 91.268 17.3187 91.7727C19.0787 93.4542 20.3321 94.4724 20.9111 94.7478L20.9319 94.7577C21.0715 94.8242 21.189 94.88 21.2928 94.9285C21.4818 94.669 21.6849 94.3284 21.8697 93.9122C22.0199 93.574 22.0738 93.3936 22.0931 93.31C21.6325 91.9022 20.8485 90.5673 19.7402 89.0361C19.6749 88.9459 19.5813 88.8213 19.4699 88.6731L19.4699 88.6731L19.4698 88.6729C19.1227 88.211 18.6026 87.5189 18.2255 86.9167C17.6397 85.9811 17.0189 84.7299 16.8138 83.1544C16.4015 79.987 18.238 75.6084 22.8986 75.2254C24.5811 75.0872 26.2558 75.5128 27.595 75.9895C29.0054 76.4915 30.4243 77.1904 31.7188 77.9317ZM52.9895 74.8019C50.6331 80.8118 47.3115 86.3743 43.569 92.0051C42.017 94.3402 40.5739 96.9957 39.5164 99.6927L46.9644 102.613C47.7833 100.524 48.9432 98.3718 50.2316 96.4334C50.9292 95.3838 51.6214 94.3238 52.303 93.2511L59.5703 96.355C59.2422 97.1017 58.895 97.8577 58.5217 98.6298C58.1496 99.3993 57.7186 100.177 57.2289 101.038C57.1445 101.186 57.0576 101.339 56.9689 101.494L56.9681 101.495L56.968 101.496C56.5618 102.207 56.1177 102.985 55.7044 103.766L62.7764 107.506C63.1235 106.85 63.4891 106.209 63.8914 105.504C63.9866 105.338 64.0838 105.167 64.1833 104.992C64.6845 104.111 65.2282 103.138 65.724 102.112C67.5858 98.2612 68.9722 94.4711 70.325 90.7727L70.3253 90.7721C70.9442 89.08 71.5561 87.4071 72.2034 85.7564L64.7554 82.8361C63.9621 84.8594 63.2848 86.715 62.6374 88.4886L62.6374 88.4887C62.587 88.6268 62.5368 88.7643 62.4867 88.9015L56.4113 86.3067C57.9019 83.5558 59.2681 80.7045 60.4374 77.7222L52.9895 74.8019Z" fill="#1E1E1E"/>
<path fill-rule="evenodd" clip-rule="evenodd" d="M22 8C18.6863 8 16 10.6863 16 14C16 17.3137 18.6863 20 22 20C25.3137 20 28 17.3137 28 14C28 10.6863 25.3137 8 22 8ZM8 14C8 6.26801 14.268 0 22 0C29.732 0 36 6.26801 36 14C36 21.732 29.732 28 22 28C14.268 28 8 21.732 8 14Z" fill="#1E1E1E"/>
<path fill-rule="evenodd" clip-rule="evenodd" d="M90 53C90 41.9543 98.9543 33 110 33H150C161.046 33 170 41.9543 170 53V93C170 104.046 161.046 113 150 113H110C98.9543 113 90 104.046 90 93V53ZM149.6 46.6C146.286 46.6 143.6 49.2863 143.6 52.6C143.6 55.9137 146.286 58.6 149.6 58.6C152.914 58.6 155.6 55.9137 155.6 52.6C155.6 49.2863 152.914 46.6 149.6 46.6ZM135.6 52.6C135.6 44.868 141.868 38.6 149.6 38.6C157.332 38.6 163.6 44.868 163.6 52.6C163.6 60.332 157.332 66.6 149.6 66.6C141.868 66.6 135.6 60.332 135.6 52.6ZM112.01 40.2784C112.372 45.4682 112.235 49.6596 111.704 52.812C111.154 56.0748 110.269 57.6991 109.609 58.3591C109.265 58.7036 108.88 58.9743 107.683 58.6063C106.187 58.1462 103.898 56.7416 100.828 53.6716L95.1716 59.3284C98.6016 62.7584 102.001 65.2288 105.332 66.2531C108.964 67.3694 112.548 66.7339 115.266 64.0159C117.668 61.6134 118.939 58.0189 119.593 54.1412C120.265 50.1529 120.378 45.2818 119.99 39.7216L112.01 40.2784ZM121.719 77.9317C124.239 79.3752 126.754 81.2516 128.171 82.7779L122.309 88.2221C121.628 87.488 119.848 86.0796 117.743 84.8738C117.11 84.5116 116.494 84.1943 115.918 83.9346C116.021 84.0735 116.127 84.2156 116.221 84.3455C117.563 86.1996 118.905 88.3445 119.734 90.9382C120.56 93.5208 119.831 95.6958 119.181 97.1593C118.503 98.6855 117.309 100.648 115.43 101.983C113.699 103.212 111.857 103.327 110.374 103.036C109.215 102.808 108.149 102.296 107.6 102.032C107.554 102.01 107.512 101.99 107.474 101.972C105.527 101.045 103.353 99.0477 101.792 97.5569C100.99 96.7908 100.29 96.0983 99.6749 95.4899L99.6739 95.4889L99.6737 95.4887C98.8457 94.6698 98.1718 94.0033 97.6115 93.5148L102.869 87.4851C103.578 88.103 104.595 89.1051 105.611 90.1059L105.611 90.106L105.611 90.106L105.612 90.1066L105.612 90.1066C106.201 90.6876 106.791 91.268 107.319 91.7727C109.079 93.4542 110.332 94.4724 110.911 94.7478L110.932 94.7577C111.072 94.8242 111.189 94.88 111.293 94.9285C111.482 94.669 111.685 94.3284 111.87 93.9122C112.02 93.574 112.074 93.3936 112.093 93.31C111.633 91.9022 110.848 90.5673 109.74 89.0361C109.675 88.9459 109.581 88.8213 109.47 88.6731L109.47 88.6731L109.47 88.6729C109.123 88.211 108.603 87.5189 108.226 86.9167C107.64 85.9811 107.019 84.7299 106.814 83.1544C106.402 79.987 108.238 75.6084 112.899 75.2254C114.581 75.0872 116.256 75.5128 117.595 75.9895C119.005 76.4915 120.424 77.1904 121.719 77.9317ZM142.989 74.8019C140.633 80.8118 137.311 86.3743 133.569 92.0051C132.017 94.3402 130.574 96.9957 129.516 99.6927L136.964 102.613C137.783 100.524 138.943 98.3718 140.232 96.4334C140.929 95.3838 141.621 94.3238 142.303 93.2511L149.57 96.355C149.242 97.1017 148.895 97.8577 148.522 98.6298C148.15 99.3993 147.719 100.177 147.229 101.038C147.145 101.186 147.058 101.339 146.969 101.494L146.968 101.495L146.968 101.496C146.562 102.207 146.118 102.985 145.704 103.766L152.776 107.506C153.124 106.85 153.489 106.209 153.891 105.504C153.987 105.338 154.084 105.167 154.183 104.992C154.685 104.111 155.228 103.138 155.724 102.112C157.586 98.2612 158.972 94.4711 160.325 90.7727L160.325 90.7721C160.944 89.08 161.556 87.4071 162.203 85.7564L154.755 82.8361C153.962 84.8594 153.285 86.715 152.637 88.4886L152.637 88.4887C152.587 88.6268 152.537 88.7643 152.487 88.9015L146.411 86.3067C147.902 83.5558 149.268 80.7045 150.437 77.7222L142.989 74.8019Z" fill="#1E1E1E"/>
<path fill-rule="evenodd" clip-rule="evenodd" d="M112 8C108.686 8 106 10.6863 106 14C106 17.3137 108.686 20 112 20C115.314 20 118 17.3137 118 14C118 10.6863 115.314 8 112 8ZM98 14C98 6.26801 104.268 0 112 0C119.732 0 126 6.26801 126 14C126 21.732 119.732 28 112 28C104.268 28 98 21.732 98 14Z" fill="#1E1E1E"/>
<path fill-rule="evenodd" clip-rule="evenodd" d="M180 53C180 41.9543 188.954 33 200 33H240C251.046 33 260 41.9543 260 53V93C260 104.046 251.046 113 240 113H200C188.954 113 180 104.046 180 93V53ZM239.6 46.6C236.286 46.6 233.6 49.2863 233.6 52.6C233.6 55.9137 236.286 58.6 239.6 58.6C242.914 58.6 245.6 55.9137 245.6 52.6C245.6 49.2863 242.914 46.6 239.6 46.6ZM225.6 52.6C225.6 44.868 231.868 38.6 239.6 38.6C247.332 38.6 253.6 44.868 253.6 52.6C253.6 60.332 247.332 66.6 239.6 66.6C231.868 66.6 225.6 60.332 225.6 52.6ZM202.01 40.2784C202.372 45.4682 202.235 49.6596 201.704 52.812C201.154 56.0748 200.269 57.6991 199.609 58.3591C199.265 58.7036 198.88 58.9743 197.683 58.6063C196.187 58.1462 193.898 56.7416 190.828 53.6716L185.172 59.3284C188.602 62.7584 192.001 65.2288 195.332 66.2531C198.964 67.3694 202.548 66.7339 205.266 64.0159C207.668 61.6134 208.939 58.0189 209.593 54.1412C210.265 50.1529 210.378 45.2818 209.99 39.7216L202.01 40.2784ZM211.719 77.9317C214.239 79.3752 216.754 81.2516 218.171 82.7779L212.309 88.2221C211.628 87.488 209.848 86.0796 207.743 84.8738C207.11 84.5116 206.494 84.1943 205.918 83.9346C206.021 84.0735 206.127 84.2156 206.221 84.3455C207.563 86.1996 208.905 88.3445 209.734 90.9382C210.56 93.5208 209.831 95.6958 209.181 97.1593C208.503 98.6855 207.309 100.648 205.43 101.983C203.699 103.212 201.857 103.327 200.374 103.036C199.215 102.808 198.149 102.296 197.6 102.032C197.554 102.01 197.512 101.99 197.474 101.972C195.527 101.045 193.353 99.0477 191.792 97.5569C190.99 96.7908 190.29 96.0983 189.675 95.4899L189.674 95.4889L189.674 95.4887C188.846 94.6698 188.172 94.0033 187.612 93.5148L192.869 87.4851C193.578 88.103 194.595 89.1051 195.611 90.1059L195.611 90.106L195.611 90.106L195.612 90.1066L195.612 90.1066C196.201 90.6876 196.791 91.268 197.319 91.7727C199.079 93.4542 200.332 94.4724 200.911 94.7478L200.932 94.7577C201.072 94.8242 201.189 94.88 201.293 94.9285C201.482 94.669 201.685 94.3284 201.87 93.9122C202.02 93.574 202.074 93.3936 202.093 93.31C201.633 91.9022 200.848 90.5673 199.74 89.0361C199.675 88.9459 199.581 88.8213 199.47 88.6731L199.47 88.6731L199.47 88.6729C199.123 88.211 198.603 87.5189 198.226 86.9167C197.64 85.9811 197.019 84.7299 196.814 83.1544C196.402 79.987 198.238 75.6084 202.899 75.2254C204.581 75.0872 206.256 75.5128 207.595 75.9895C209.005 76.4915 210.424 77.1904 211.719 77.9317ZM232.989 74.8019C230.633 80.8118 227.311 86.3743 223.569 92.0051C222.017 94.3402 220.574 96.9957 219.516 99.6927L226.964 102.613C227.783 100.524 228.943 98.3718 230.232 96.4334C230.929 95.3838 231.621 94.3238 232.303 93.2511L239.57 96.355C239.242 97.1017 238.895 97.8577 238.522 98.6298C238.15 99.3993 237.719 100.177 237.229 101.038C237.145 101.186 237.058 101.339 236.969 101.494L236.968 101.495L236.968 101.496C236.562 102.207 236.118 102.985 235.704 103.766L242.776 107.506C243.124 106.85 243.489 106.209 243.891 105.504C243.987 105.338 244.084 105.167 244.183 104.992C244.685 104.111 245.228 103.138 245.724 102.112C247.586 98.2612 248.972 94.4711 250.325 90.7727L250.325 90.7721C250.944 89.08 251.556 87.4071 252.203 85.7564L244.755 82.8361C243.962 84.8594 243.285 86.715 242.637 88.4886L242.637 88.4887C242.587 88.6268 242.537 88.7643 242.487 88.9015L236.411 86.3067C237.902 83.5558 239.268 80.7045 240.437 77.7222L232.989 74.8019Z" fill="#1E1E1E"/>
<path fill-rule="evenodd" clip-rule="evenodd" d="M202 8C198.686 8 196 10.6863 196 14C196 17.3137 198.686 20 202 20C205.314 20 208 17.3137 208 14C208 10.6863 205.314 8 202 8ZM188 14C188 6.26801 194.268 0 202 0C209.732 0 216 6.26801 216 14C216 21.732 209.732 28 202 28C194.268 28 188 21.732 188 14Z" fill="#1E1E1E"/>
</svg>
